<?xml version="1.0" encoding="UTF-8" standalone="no"?>
<!-- Created with Inkscape (http://www.inkscape.org/) -->
<svg
   xmlns:dc="http://purl.org/dc/elements/1.1/"
   xmlns:cc="http://creativecommons.org/ns#"
   xmlns:rdf="http://www.w3.org/1999/02/22-rdf-syntax-ns#"
   xmlns:svg="http://www.w3.org/2000/svg"
   xmlns="http://www.w3.org/2000/svg"
   xmlns:sodipodi="http://sodipodi.sourceforge.net/DTD/sodipodi-0.dtd"
   xmlns:inkscape="http://www.inkscape.org/namespaces/inkscape"
   width="673.14288"
   height="601.71429"
   id="svg2"
   sodipodi:version="0.32"
   inkscape:version="0.46"
   version="1.0"
   sodipodi:docname="namibia-outline.svg"
   inkscape:output_extension="org.inkscape.output.svg.inkscape">
  <defs
     id="defs4">
    <inkscape:perspective
       sodipodi:type="inkscape:persp3d"
       inkscape:vp_x="0 : 526.18109 : 1"
       inkscape:vp_y="0 : 1000 : 0"
       inkscape:vp_z="744.09448 : 526.18109 : 1"
       inkscape:persp3d-origin="372.04724 : 350.78739 : 1"
       id="perspective10" />
    <inkscape:perspective
       id="perspective2392"
       inkscape:persp3d-origin="372.04724 : 350.78739 : 1"
       inkscape:vp_z="744.09448 : 526.18109 : 1"
       inkscape:vp_y="0 : 1000 : 0"
       inkscape:vp_x="0 : 526.18109 : 1"
       sodipodi:type="inkscape:persp3d" />
    <inkscape:perspective
       id="perspective2407"
       inkscape:persp3d-origin="372.04724 : 350.78739 : 1"
       inkscape:vp_z="744.09448 : 526.18109 : 1"
       inkscape:vp_y="0 : 1000 : 0"
       inkscape:vp_x="0 : 526.18109 : 1"
       sodipodi:type="inkscape:persp3d" />
  </defs>
  <sodipodi:namedview
     id="base"
     pagecolor="#ffffff"
     bordercolor="#666666"
     borderopacity="1.0"
     gridtolerance="10000"
     guidetolerance="10"
     objecttolerance="10"
     inkscape:pageopacity="0.0"
     inkscape:pageshadow="2"
     inkscape:zoom="0.7"
     inkscape:cx="154.52761"
     inkscape:cy="294.19047"
     inkscape:document-units="px"
     inkscape:current-layer="layer1"
     showgrid="false"
     inkscape:window-width="1440"
     inkscape:window-height="844"
     inkscape:window-x="-4"
     inkscape:window-y="-4" />
  <metadata
     id="metadata7">
    <rdf:RDF>
      <cc:Work
         rdf:about="">
        <dc:format>image/svg+xml</dc:format>
        <dc:type
           rdf:resource="http://purl.org/dc/dcmitype/StillImage" />
      </cc:Work>
    </rdf:RDF>
  </metadata>
  <g
     inkscape:label="Layer 1"
     inkscape:groupmode="layer"
     id="layer1"
     transform="translate(-1.4285713,-41.999993)">
    <path
       style="fill:#ffffff;fill-rule:evenodd;stroke:#000000;stroke-width:1px;stroke-linecap:butt;stroke-linejoin:miter;stroke-opacity:1"
       d="M 4.0714313,58.214283 L 19.785711,51.071423 L 29.785711,57.500003 L 36.928571,53.928573 L 44.071431,56.785713 L 73.357141,42.499993 L 87.642851,43.928573 L 102.64285,57.500003 L 116.21428,66.785713 L 134.78571,66.071433 L 338.35714,64.642863 L 356.92857,83.928573 L 372.64285,84.642863 L 386.21428,86.071433 L 396.21428,87.500003 L 401.92857,88.214293 L 411.21428,88.928573 L 431.92857,87.500003 L 448.35714,94.642863 L 457.64285,96.785713 L 469.07143,91.785713 L 476.21428,91.785713 L 491.21428,97.500003 L 619.78571,70.357143 L 639.07143,68.928573 L 645.5,71.785713 L 656.92857,71.071433 L 670.5,76.071433 L 674.07143,83.214293 L 658.35714,86.071433 L 649.78571,93.928573 L 636.92857,90.357143 L 631.92857,94.642863 L 626.21428,95.357143 L 619.78571,101.07143 L 615.5,103.21429 L 596.92857,119.64286 L 591.92857,109.64286 L 586.21428,103.21429 L 582.64285,96.785713 L 580.5,93.214293 L 568.35714,94.642863 L 491.92857,110.35714 L 466.21428,109.64286 L 466.21428,293.92857 L 416.92857,294.64286 L 416.21428,614.64286 L 407.64285,617.5 L 396.21428,619.64286 L 387.64285,630.35714 L 379.07143,630.35714 L 379.78571,637.5 L 375.5,643.21429 L 369.78571,640.35714 L 361.21428,636.07143 L 346.92857,636.07143 L 337.64285,637.5 L 329.07143,637.5 L 324.07143,638.92857 L 318.35714,635.35714 L 314.07143,633.21429 L 298.35714,631.07143 L 294.07143,628.21429 L 287.64285,629.64286 L 286.92857,622.5 L 283.35714,619.64286 L 287.64285,613.21429 L 284.07143,607.5 L 284.07143,604.64286 L 278.35714,606.07143 L 274.78571,600.35714 L 271.92857,596.78571 L 264.78571,596.78571 L 259.07143,603.21429 L 255.5,611.07143 L 252.64285,618.21429 L 246.92857,618.92857 L 238.35714,624.64286 L 226.92857,616.78571 L 220.5,609.64286 L 211.92857,602.5 L 202.64285,592.5 L 194.78571,582.5 L 187.64285,567.5 L 179.78571,558.92857 L 178.35714,546.78571 L 175.5,538.21429 L 171.21428,532.5 L 171.21428,526.78571 L 174.07143,523.21429 L 174.78571,518.21429 L 168.35714,511.07143 L 163.35714,506.07143 L 164.07143,500.35714 L 165.5,495.35714 L 161.92857,489.64286 L 156.92857,481.07143 L 159.07143,469.64286 L 156.92857,462.5 L 157.64285,456.78571 L 162.64285,446.78571 L 155.5,438.92857 L 154.78571,432.5 L 149.07143,425.35714 L 144.07143,421.07143 L 146.92857,416.78571 L 145.5,411.07143 L 141.21428,402.5 L 139.07143,393.21429 L 143.35714,387.5 L 140.5,381.07143 L 143.35714,373.21429 L 139.07143,364.64286 L 139.07143,356.07143 L 138.35714,350.35714 L 137.64285,341.78571 L 142.64285,341.07143 L 144.78571,328.92857 L 136.92857,308.92857 L 131.21428,301.78571 L 121.92857,288.21429 L 114.78571,281.07143 L 113.35714,275.35714 L 108.35714,268.92857 L 105.5,263.92857 L 100.5,257.5 L 93.357141,246.78571 L 90.500001,242.5 L 84.785711,233.21429 L 84.785711,228.21429 L 79.071431,218.21429 L 79.071431,213.21429 L 76.214281,208.21429 L 71.928571,201.07143 L 68.357141,196.07143 L 64.785711,187.5 L 41.214281,140.35714 L 36.214281,134.64286 L 29.785711,127.5 L 24.071431,123.21429 L 16.928571,117.5 L 16.928571,111.78571 L 14.785711,103.21429 L 10.500001,97.500003 L 6.2142813,91.071433 L 1.9285713,83.214293 L 3.3571413,73.214293 L 4.0714313,58.214283 z"
       id="path2413" />
  </g>
</svg>
