<?xml version="1.0" encoding="UTF-8" standalone="no"?>
<svg
  xmlns:svg="http://www.w3.org/2000/svg"
  xmlns="http://www.w3.org/2000/svg"
  version="1.0"
  x="0"
  y="0"
  width="550"
  height="600"
  id="svg1">
 <defs
   id="defs1" />
 <g
   id="Uganda"
   transform="translate(-2955,450) scale(100,-100)">
  <path
    style="fill:#ffffff; stroke:#000000; stroke-width:0.01;"
    d="M 35.03354,1.89929
       L 35.02704,1.85847
       L 35.00714,1.73366
       L 35,1.68869
       L 34.99899,1.68252
       L 34.99771,1.67779
       L 34.97083,1.62692
       L 34.97003,1.62106
       L 34.96762,1.6165
       L 34.96704,1.61567
       L 34.96085,1.60655
       L 34.95245,1.59077
       L 34.94763,1.58177
       L 34.92758,1.5747
       L 34.91806,1.56914
       L 34.91095,1.56781
       L 34.89899,1.55557
       L 34.88864,1.55651
       L 34.87512,1.54203
       L 34.86655,1.53284
       L 34.86139,1.52339
       L 34.8428,1.45936
       L 34.84247,1.45546
       L 34.84567,1.44443
       L 34.84552,1.43861
       L 34.8429,1.43777
       L 34.8396,1.43876
       L 34.83191,1.44301
       L 34.83032,1.44388
       L 34.82684,1.4442
       L 34.8201,1.44052
       L 34.80801,1.43899
       L 34.78854,1.43294
       L 34.78644,1.4243
       L 34.77469,1.42658
       L 34.76974,1.42424
       L 34.7709,1.41826
       L 34.78342,1.39836
       L 34.78473,1.39629
       L 34.79645,1.37764
       L 34.79782,1.37549
       L 34.79404,1.36899
       L 34.79272,1.36268
       L 34.82648,1.30965
       L 34.82892,1.30581
       L 34.82974,1.30215
       L 34.82236,1.28801
       L 34.82355,1.27838
       L 34.82126,1.2684
       L 34.81973,1.26625
       L 34.81598,1.26091
       L 34.81305,1.2516
       L 34.80313,1.23756
       L 34.79977,1.22781
       L 34.76929,1.21795
       L 34.72244,1.21493
       L 34.71103,1.21234
       L 34.70688,1.21278
       L 34.70486,1.21299
       L 34.68546,1.21035
       L 34.67953,1.20825
       L 34.66702,1.19761
       L 34.65341,1.18288
       L 34.64612,1.17497
       L 34.63882,1.17079
       L 34.62128,1.16632
       L 34.60019,1.15452
       L 34.5777,1.153
       L 34.57678,1.14484
       L 34.5737,1.1179
       L 34.57205,1.10917
       L 34.56897,1.10397
       L 34.56467,1.10105
       L 34.51862,1.10316
       L 34.51715,1.10214
       L 34.51593,1.10129
       L 34.51141,1.09338
       L 34.50784,1.08463
       L 34.50232,1.07108
       L 34.50037,1.06635
       L 34.49222,1.03434
       L 34.48959,1.02083
       L 34.48743,0.98969
       L 34.48483,0.98164
       L 34.48395,0.97888
       L 34.47766,0.94688
       L 34.47818,0.94395
       L 34.48132,0.94026
       L 34.47574,0.92789
       L 34.46396,0.91082
       L 34.45276,0.88068
       L 34.45114,0.87628
       L 34.43845,0.85645
       L 34.42477,0.852
       L 34.41855,0.83616
       L 34.41556,0.82851
       L 34.41766,0.82002
       L 34.41428,0.81311
       L 34.41248,0.81129
       L 34.41019,0.80896
       L 34.39059,0.80149
       L 34.37808,0.78877
       L 34.3649,0.7818
       L 34.3623,0.7809
       L 34.35419,0.77806
       L 34.33685,0.77451
       L 34.32794,0.77032
       L 34.32587,0.76855
       L 34.32001,0.76361
       L 34.31412,0.75484
       L 34.31281,0.74611
       L 34.31546,0.72063
       L 34.31415,0.71074
       L 34.30768,0.70634
       L 34.30573,0.70156
       L 34.3035,0.69601
       L 34.30164,0.69444
       L 34.28012,0.67638
       L 34.27802,0.65775
       L 34.2757,0.65259
       L 34.26666,0.64423
       L 34.2464,0.63702
       L 34.23026,0.63418
       L 34.21899,0.62817
       L 34.21826,0.62779
       L 34.21704,0.62745
       L 34.21198,0.62598
       L 34.1972,0.62553
       L 34.18759,0.6144
       L 34.17834,0.61099
       L 34.16968,0.60546
       L 34.1593,0.59883
       L 34.15482,0.58732
       L 34.14478,0.58451
       L 34.14145,0.58132
       L 34.13754,0.57418
       L 34.1322,0.55168
       L 34.12997,0.54225
       L 34.1235,0.53113
       L 34.12332,0.52855
       L 34.12946,0.52066
       L 34.12604,0.49192
       L 34.12762,0.48479
       L 34.12527,0.48102
       L 34.10602,0.47302
       L 34.09894,0.46665
       L 34.09888,0.46649
       L 34.09406,0.45554
       L 34.09409,0.44782
       L 34.09412,0.44702
       L 34.09692,0.43099
       L 34.10565,0.4128
       L 34.10965,0.3948
       L 34.10931,0.38232
       L 34.10544,0.36844
       L 34.10233,0.36331
       L 34.09799,0.35613
       L 34.09073,0.34758
       L 34.0784,0.33459
       L 34.05447,0.3094
       L 34.04156,0.28479
       L 34.03885,0.28216
       L 34.0253,0.26908
       L 34.01199,0.25139
       L 34.00119,0.23616
       L 33.96402,0.18366
       L 33.96069,0.1787
       L 33.95895,0.17255
       L 33.95612,0.16953
       L 33.94739,0.16022
       L 33.94016,0.15003
       L 33.93619,0.14446
       L 33.9136,0.18548
       L 33.93619,0.14446
       L 33.92865,0.13382
       L 33.91919,0.1205
       L 33.90884,0.10283
       L 33.91605,0.07336
       L 33.91782,0.07258
       L 33.9202,0.06665
       L 33.92072,0.06505
       L 33.93573,0.01849
       L 33.93753,0
       L 33.94446,-0.02664
       L 33.97256,-0.13398
       L 33.97302,-0.14409
       L 33.96497,-0.19437
       L 33.96201,-0.20056
       L 33.95703,-0.24557
       L 33.95532,-0.26096
       L 33.94983,-0.28576
       L 33.95456,-0.29489
       L 33.94934,-0.2977
       L 33.94452,-0.3163
       L 33.94073,-0.34175
       L 33.93442,-0.38404
       L 33.93167,-0.39415
       L 33.93213,-0.39966
       L 33.92886,-0.41595
       L 33.92407,-0.44008
       L 33.92453,-0.45225
       L 33.92154,-0.4619
       L 33.91803,-0.5276
       L 33.91779,-0.54124
       L 33.9166,-0.60204
       L 33.91895,-0.66753
       L 33.92014,-0.70015
       L 33.9216,-0.79386
       L 33.92267,-0.86125
       L 33.9213,-0.87826
       L 33.92334,-0.88929
       L 33.92239,-0.90836
       L 33.92273,-0.91995
       L 33.9248,-0.99407
       L 33.92538,-1.0028
       L 33.43158,-1.00131
       L 32.99911,-1
       L 32.88507,-1.00002
       L 32.74097,-1.00005
       L 31.99434,-1.00006
       L 31.25238,-1.00008
       L 30.80618,-1.00008
       L 30.7364,-1.00008
       L 30.72057,-1.00448
       L 30.71561,-1.00753
       L 30.69577,-1.00944
       L 30.67163,-1.02909
       L 30.66719,-1.03792
       L 30.66425,-1.04853
       L 30.65973,-1.05153
       L 30.65561,-1.05596
       L 30.64734,-1.06001
       L 30.64087,-1.05955
       L 30.6275,-1.06225
       L 30.61934,-1.06121
       L 30.6144,-1.06151
       L 30.60057,-1.05831
       L 30.59665,-1.0588
       L 30.5822,-1.05496
       L 30.57959,-1.05551
       L 30.57805,-1.05715
       L 30.57465,-1.0565
       L 30.57077,-1.05715
       L 30.56598,-1.06008
       L 30.55627,-1.05978
       L 30.53546,-1.06899
       L 30.52461,-1.06953
       L 30.5126,-1.06657
       L 30.50948,-1.06746
       L 30.50647,-1.06703
       L 30.4946,-1.05607
       L 30.48837,-1.0531
       L 30.48242,-1.05191
       L 30.47289,-1.052
       L 30.46759,-1.05442
       L 30.46622,-1.05601
       L 30.46565,-1.05719
       L 30.46138,-1.0552
       L 30.45995,-1.05498
       L 30.45872,-1.05441
       L 30.44977,-1.05304
       L 30.44751,-1.05625
       L 30.4471,-1.05683
       L 30.44209,-1.05374
       L 30.4404,-1.05271
       L 30.43729,-1.05357
       L 30.42799,-1.06203
       L 30.42052,-1.0642
       L 30.39574,-1.06422
       L 30.38994,-1.0672
       L 30.3864,-1.06724
       L 30.37085,-1.06353
       L 30.36255,-1.06013
       L 30.36218,-1.06027
       L 30.36169,-1.06044
       L 30.36058,-1.06086
       L 30.35901,-1.06144
       L 30.35292,-1.06368
       L 30.34836,-1.06834
       L 30.34709,-1.07644
       L 30.34773,-1.08384
       L 30.33984,-1.10017
       L 30.3382,-1.10865
       L 30.33815,-1.12093
       L 30.33955,-1.13228
       L 30.32951,-1.13396
       L 30.32426,-1.13629
       L 30.31792,-1.14162
       L 30.3047,-1.14723
       L 30.29836,-1.15394
       L 30.29446,-1.17412
       L 30.2943,-1.175
       L 30.29065,-1.19398
       L 30.28676,-1.19446
       L 30.28362,-1.20092
       L 30.27609,-1.2035
       L 30.27406,-1.20765
       L 30.27452,-1.20986
       L 30.27478,-1.21109
       L 30.27002,-1.21802
       L 30.24576,-1.23029
       L 30.24123,-1.24331
       L 30.23315,-1.25426
       L 30.20938,-1.2709
       L 30.19971,-1.2706
       L 30.19717,-1.28533
       L 30.19072,-1.28558
       L 30.18942,-1.28465
       L 30.18022,-1.27803
       L 30.17908,-1.27808
       L 30.17509,-1.27826
       L 30.16716,-1.28387
       L 30.16644,-1.28846
       L 30.1682,-1.29429
       L 30.17114,-1.30408
       L 30.17041,-1.30848
       L 30.16087,-1.32499
       L 30.15959,-1.33054
       L 30.15956,-1.34925
       L 30.15677,-1.35482
       L 30.15318,-1.3579
       L 30.14693,-1.35834
       L 30.14491,-1.35739
       L 30.14177,-1.3559
       L 30.14154,-1.35601
       L 30.13496,-1.35902
       L 30.131,-1.36932
       L 30.13033,-1.37109
       L 30.12187,-1.38148
       L 30.11772,-1.38438
       L 30.11156,-1.38422
       L 30.0955,-1.38381
       L 30.07957,-1.38681
       L 30.07448,-1.38991
       L 30.06657,-1.39781
       L 30.05446,-1.40212
       L 30.05162,-1.40443
       L 30.05034,-1.40903
       L 30.05038,-1.41552
       L 30.05482,-1.42293
       L 30.05431,-1.42886
       L 30.05263,-1.43288
       L 30.04733,-1.43637
       L 30.0386,-1.43721
       L 30.03745,-1.43615
       L 30.03134,-1.43058
       L 30.02914,-1.42625
       L 30.02786,-1.42374
       L 30.02481,-1.42185
       L 30.02412,-1.42193
       L 30.02101,-1.42227
       L 30.0184,-1.42328
       L 30.01648,-1.42403
       L 30.00951,-1.4302
       L 30,-1.43978
       L 29.99686,-1.44294
       L 29.98447,-1.45543
       L 29.97897,-1.45682
       L 29.95987,-1.4671
       L 29.93999,-1.47319
       L 29.92462,-1.48211
       L 29.92128,-1.48405
       L 29.91615,-1.48346
       L 29.91348,-1.48316
       L 29.9127,-1.48238
       L 29.90967,-1.47937
       L 29.90579,-1.47043
       L 29.89406,-1.45138
       L 29.88437,-1.42916
       L 29.8833,-1.41313
       L 29.87682,-1.38816
       L 29.87708,-1.37725
       L 29.87724,-1.36963
       L 29.87492,-1.3643
       L 29.86691,-1.35941
       L 29.86615,-1.35944
       L 29.86469,-1.35855
       L 29.85641,-1.35894
       L 29.85483,-1.35902
       L 29.82564,-1.31518
       L 29.82512,-1.31488
       L 29.81889,-1.31493
       L 29.81645,-1.318
       L 29.80806,-1.33641
       L 29.80325,-1.34186
       L 29.79771,-1.34814
       L 29.79216,-1.36672
       L 29.78877,-1.36865
       L 29.78421,-1.36946
       L 29.7805,-1.36882
       L 29.77357,-1.36763
       L 29.7731,-1.36708
       L 29.77141,-1.36679
       L 29.75877,-1.35163
       L 29.74998,-1.34624
       L 29.73363,-1.34616
       L 29.72137,-1.3461
       L 29.7155,-1.34768
       L 29.70537,-1.35342
       L 29.70285,-1.35485
       L 29.67686,-1.38333
       L 29.66667,-1.3899
       L 29.64789,-1.39158
       L 29.60971,-1.3896
       L 29.59853,-1.39046
       L 29.59531,-1.39239
       L 29.59332,-1.39302
       L 29.59367,-1.37115
       L 29.60454,-1.33003
       L 29.60486,-1.32315
       L 29.60367,-1.31629
       L 29.59694,-1.30299
       L 29.59453,-1.28678
       L 29.59183,-1.28294
       L 29.59081,-1.27771
       L 29.59125,-1.2696
       L 29.59167,-1.26225
       L 29.59726,-1.2485
       L 29.59987,-1.23476
       L 29.59901,-1.21981
       L 29.59276,-1.21164
       L 29.57504,-1.19583
       L 29.5715,-1.18664
       L 29.57121,-1.18141
       L 29.57965,-1.15697
       L 29.57993,-1.15616
       L 29.57912,-1.14695
       L 29.57408,-1.13552
       L 29.57178,-1.12632
       L 29.57491,-1.11508
       L 29.57979,-1.10606
       L 29.58408,-1.0841
       L 29.5843,-1.05169
       L 29.58255,-1.03433
       L 29.5806,-1.01518
       L 29.57895,-0.99891
       L 29.58278,-0.98193
       L 29.59175,-0.95818
       L 29.58531,-0.92584
       L 29.58571,-0.91099
       L 29.58589,-0.90441
       L 29.58983,-0.90288
       L 29.59702,-0.90282
       L 29.62305,-0.90534
       L 29.62822,-0.90206
       L 29.6304,-0.89756
       L 29.63037,-0.89258
       L 29.62596,-0.86844
       L 29.62164,-0.85442
       L 29.62463,-0.84704
       L 29.63547,-0.82929
       L 29.63676,-0.81825
       L 29.62843,-0.8004
       L 29.62979,-0.79648
       L 29.62358,-0.78894
       L 29.62674,-0.7825
       L 29.62578,-0.77653
       L 29.62895,-0.77054
       L 29.62636,-0.75815
       L 29.62831,-0.74207
       L 29.6274,-0.73838
       L 29.62596,-0.73267
       L 29.62755,-0.72899
       L 29.62407,-0.71983
       L 29.62515,-0.71225
       L 29.62396,-0.70536
       L 29.62599,-0.70076
       L 29.62985,-0.69706
       L 29.63092,-0.68557
       L 29.63455,-0.68234
       L 29.63449,-0.67247
       L 29.6377,-0.67313
       L 29.63928,-0.67152
       L 29.64107,-0.66508
       L 29.64558,-0.6584
       L 29.64709,-0.64484
       L 29.65701,-0.62779
       L 29.65715,-0.62633
       L 29.65746,-0.62274
       L 29.64769,-0.59738
       L 29.65814,-0.59394
       L 29.6627,-0.59244
       L 29.66946,-0.58425
       L 29.67891,-0.56587
       L 29.67889,-0.56282
       L 29.67276,-0.55499
       L 29.66719,-0.55402
       L 29.66566,-0.55225
       L 29.66562,-0.54539
       L 29.66881,-0.53417
       L 29.67047,-0.52145
       L 29.66762,-0.51106
       L 29.6716,-0.50339
       L 29.67305,-0.49703
       L 29.67107,-0.48553
       L 29.67041,-0.4818
       L 29.66835,-0.47673
       L 29.65161,-0.46823
       L 29.66536,-0.38626
       L 29.6682,-0.37159
       L 29.68077,-0.30659
       L 29.69217,-0.24773
       L 29.70586,-0.17698
       L 29.71613,-0.12389
       L 29.72066,-0.10044
       L 29.72459,-0.05696
       L 29.73103,-0.03987
       L 29.74106,-0.03014
       L 29.74072,-0.02151
       L 29.73311,-0.01597
       L 29.73055,-0.01193
       L 29.72978,-0.00859
       L 29.7278,0
       L 29.72127,0.0126
       L 29.71429,0.02641
       L 29.71185,0.03516
       L 29.71191,0.04479
       L 29.70908,0.0657
       L 29.71349,0.07554
       L 29.72168,0.07526
       L 29.72672,0.07637
       L 29.72905,0.08462
       L 29.72755,0.10047
       L 29.72945,0.11079
       L 29.73192,0.11996
       L 29.73256,0.12901
       L 29.74991,0.1359
       L 29.75427,0.1423
       L 29.76466,0.16036
       L 29.76994,0.16538
       L 29.78682,0.16527
       L 29.80092,0.16013
       L 29.80731,0.16055
       L 29.81281,0.16419
       L 29.82243,0.19283
       L 29.83243,0.23384
       L 29.8327,0.24188
       L 29.83524,0.24576
       L 29.84047,0.27603
       L 29.85106,0.32579
       L 29.8539,0.33886
       L 29.85718,0.35399
       L 29.87021,0.39247
       L 29.87346,0.39667
       L 29.90703,0.43998
       L 29.91095,0.44685
       L 29.96083,0.5023
       L 29.97098,0.5174
       L 29.97194,0.5252
       L 29.97122,0.55437
       L 29.96449,0.57164
       L 29.96461,0.58909
       L 29.9642,0.59437
       L 29.95497,0.61259
       L 29.94803,0.63262
       L 29.94742,0.64318
       L 29.94978,0.65718
       L 29.95749,0.67987
       L 29.96303,0.692
       L 29.964,0.69911
       L 29.96091,0.71521
       L 29.96788,0.73193
       L 29.96931,0.74134
       L 29.96481,0.75056
       L 29.9603,0.75748
       L 29.95497,0.78003
       L 29.95483,0.79198
       L 29.95995,0.80573
       L 29.96455,0.81304
       L 29.97835,0.82765
       L 29.98158,0.83916
       L 29.98209,0.84095
       L 29.99443,0.85006
       L 29.9977,0.84814
       L 29.99893,0.8483
       L 30.00548,0.85283
       L 30.01155,0.85428
       L 30.01669,0.85867
       L 30.02176,0.85934
       L 30.02654,0.86423
       L 30.03185,0.86543
       L 30.04219,0.87087
       L 30.0518,0.8721
       L 30.06039,0.87536
       L 30.06744,0.88168
       L 30.07907,0.8842
       L 30.09787,0.89367
       L 30.10193,0.89371
       L 30.10661,0.89164
       L 30.10815,0.89096
       L 30.11407,0.89522
       L 30.11661,0.8955
       L 30.12663,0.89329
       L 30.12817,0.89165
       L 30.13412,0.89081
       L 30.14218,0.8847
       L 30.14647,0.88865
       L 30.15181,0.90157
       L 30.15887,0.90302
       L 30.16203,0.90558
       L 30.16425,0.91203
       L 30.16924,0.91508
       L 30.17102,0.91923
       L 30.16933,0.92816
       L 30.17061,0.93438
       L 30.17577,0.9443
       L 30.17484,0.94636
       L 30.17708,0.94845
       L 30.18094,0.94869
       L 30.1862,0.94901
       L 30.18892,0.95111
       L 30.1916,0.95619
       L 30.19217,0.96722
       L 30.19487,0.97046
       L 30.20488,0.97539
       L 30.20871,0.97888
       L 30.21185,0.98466
       L 30.22202,0.99418
       L 30.22379,0.99925
       L 30.22025,1.00978
       L 30.22899,1.02548
       L 30.23268,1.04183
       L 30.23587,1.04942
       L 30.23302,1.05291
       L 30.23366,1.0555
       L 30.2408,1.08452
       L 30.24446,1.08762
       L 30.25232,1.09061
       L 30.26271,1.11625
       L 30.28986,1.1401
       L 30.29707,1.14259
       L 30.30026,1.14618
       L 30.30655,1.14818
       L 30.3175,1.15619
       L 30.32094,1.156
       L 30.32693,1.15055
       L 30.33012,1.15105
       L 30.33374,1.15476
       L 30.33763,1.17524
       L 30.35612,1.19656
       L 30.36043,1.1996
       L 30.38657,1.19001
       L 30.39294,1.19099
       L 30.3963,1.19248
       L 30.40567,1.19664
       L 30.41159,1.19553
       L 30.4136,1.19351
       L 30.41678,1.19355
       L 30.43538,1.20043
       L 30.45193,1.20394
       L 30.45541,1.20607
       L 30.46573,1.21239
       L 30.52193,1.28005
       L 30.53807,1.30029
       L 30.57828,1.35076
       L 30.6001,1.37402
       L 30.61844,1.39717
       L 30.6555,1.44391
       L 30.69704,1.49316
       L 30.69853,1.49432
       L 30.79758,1.57193
       L 30.80974,1.58147
       L 30.81642,1.58393
       L 30.84254,1.60738
       L 30.85207,1.61323
       L 30.89647,1.64891
       L 30.94923,1.69129
       L 30.97002,1.70636
       L 30.99542,1.72661
       L 31.02264,1.7483
       L 31.03166,1.75735
       L 31.0435,1.77525
       L 31.07866,1.82001
       L 31.14716,1.90722
       L 31.1575,1.91825
       L 31.22488,1.99007
       L 31.23511,2.00859
       L 31.23972,2.01295
       L 31.24161,2.01473
       L 31.24648,2.02504
       L 31.30197,2.11735
       L 31.30203,2.12176
       L 31.30252,2.15169
       L 31.30154,2.15489
       L 31.28824,2.16372
       L 31.22432,2.20617
       L 31.2002,2.22219
       L 31.19858,2.22474
       L 31.19583,2.2942
       L 31.18657,2.29381
       L 31.17862,2.29135
       L 31.17226,2.28842
       L 31.15842,2.28206
       L 31.15092,2.28087
       L 31.13654,2.28447
       L 31.13368,2.28284
       L 31.12341,2.26704
       L 31.12119,2.26718
       L 31.10033,2.28099
       L 31.08925,2.29134
       L 31.07513,2.29861
       L 31.07304,2.30117
       L 31.07301,2.30569
       L 31.07294,2.31496
       L 31.07034,2.31992
       L 31.07014,2.32746
       L 31.06572,2.34107
       L 31.06088,2.34681
       L 30.99681,2.39832
       L 30.98222,2.40672
       L 30.95766,2.40444
       L 30.94527,2.39601
       L 30.94116,2.39132
       L 30.93475,2.37331
       L 30.93811,2.35151
       L 30.93359,2.33784
       L 30.93169,2.33574
       L 30.92819,2.33411
       L 30.92755,2.33418
       L 30.92308,2.33471
       L 30.88295,2.34211
       L 30.87846,2.34448
       L 30.87282,2.35246
       L 30.85515,2.38779
       L 30.8405,2.40968
       L 30.83058,2.42451
       L 30.79976,2.42764
       L 30.77701,2.43822
       L 30.77252,2.43882
       L 30.76599,2.4383
       L 30.75835,2.4347
       L 30.75197,2.43465
       L 30.74988,2.43657
       L 30.74498,2.45065
       L 30.74397,2.45893
       L 30.74294,2.46748
       L 30.74396,2.4792
       L 30.75626,2.49808
       L 30.75807,2.51028
       L 30.75543,2.56178
       L 30.75182,2.57491
       L 30.75194,2.58077
       L 30.75204,2.58614
       L 30.75377,2.59065
       L 30.77023,2.60731
       L 30.77795,2.62165
       L 30.79117,2.66385
       L 30.79993,2.69179
       L 30.80112,2.69433
       L 30.81343,2.72029
       L 30.81387,2.72479
       L 30.82562,2.75361
       L 30.83591,2.76572
       L 30.84546,2.77109
       L 30.85794,2.78884
       L 30.86665,2.7988
       L 30.86726,2.7995
       L 30.87573,2.82107
       L 30.87805,2.83104
       L 30.87975,2.86952
       L 30.87738,2.88113
       L 30.86716,2.90304
       L 30.86105,2.91007
       L 30.85843,2.91774
       L 30.84845,2.94663
       L 30.84256,2.95973
       L 30.82483,2.97552
       L 30.81287,2.99388
       L 30.80855,2.99739
       L 30.80174,2.9986
       L 30.79289,3.00486
       L 30.78532,3.00783
       L 30.78215,3.01046
       L 30.77747,3.01434
       L 30.76653,3.02917
       L 30.76038,3.04556
       L 30.76283,3.05164
       L 30.77434,3.0621
       L 30.77632,3.0659
       L 30.79076,3.1219
       L 30.79486,3.13783
       L 30.79872,3.15985
       L 30.81052,3.19559
       L 30.81413,3.21584
       L 30.8248,3.23639
       L 30.8259,3.24243
       L 30.82672,3.24702
       L 30.82619,3.25258
       L 30.8299,3.26095
       L 30.84013,3.27114
       L 30.85791,3.28164
       L 30.88213,3.30785
       L 30.88383,3.31368
       L 30.88348,3.32707
       L 30.88744,3.33772
       L 30.89061,3.34175
       L 30.90787,3.36366
       L 30.91331,3.37532
       L 30.93251,3.39872
       L 30.93106,3.45393
       L 30.93039,3.47934
       L 30.92549,3.49347
       L 30.91969,3.4952
       L 30.91083,3.50119
       L 30.90579,3.50166
       L 30.89348,3.49904
       L 30.87096,3.48169
       L 30.86469,3.47861
       L 30.85941,3.47782
       L 30.85056,3.48356
       L 30.87198,3.53796
       L 30.88161,3.54233
       L 30.88719,3.55508
       L 30.90276,3.57798
       L 30.90718,3.5925
       L 30.91127,3.59576
       L 30.91629,3.59742
       L 30.92392,3.61083
       L 30.92566,3.61584
       L 30.93021,3.62022
       L 30.93356,3.62346
       L 30.93777,3.63183
       L 30.94336,3.65943
       L 30.94583,3.66425
       L 30.95908,3.67623
       L 30.97728,3.69911
       L 30.98383,3.69966
       L 30.9962,3.69393
       L 31.00725,3.692
       L 31.02269,3.69658
       L 31.04164,3.70683
       L 31.04433,3.70828
       L 31.05586,3.72217
       L 31.05737,3.73138
       L 31.06007,3.736
       L 31.06416,3.73857
       L 31.06943,3.73955
       L 31.0896,3.73697
       L 31.09329,3.73471
       L 31.09581,3.73564
       L 31.10326,3.74721
       L 31.11505,3.75789
       L 31.13425,3.77068
       L 31.15694,3.78483
       L 31.16307,3.78612
       L 31.16745,3.78943
       L 31.17052,3.78984
       L 31.25484,3.78929
       L 31.27951,3.78913
       L 31.28098,3.78855
       L 31.30414,3.77928
       L 31.369,3.74205
       L 31.40796,3.71968
       L 31.41586,3.71664
       L 31.43205,3.70539
       L 31.47173,3.68311
       L 31.47832,3.67974
       L 31.53526,3.65059
       L 31.55435,3.66207
       L 31.56865,3.67391
       L 31.57878,3.67956
       L 31.58813,3.68156
       L 31.5899,3.68193
       L 31.61076,3.6892
       L 31.62393,3.6964
       L 31.63506,3.69839
       L 31.63637,3.69883
       L 31.66013,3.70664
       L 31.67508,3.70788
       L 31.67969,3.70676
       L 31.69243,3.7089
       L 31.69716,3.71059
       L 31.7101,3.72173
       L 31.7153,3.72936
       L 31.71748,3.73995
       L 31.72385,3.7462
       L 31.74095,3.75325
       L 31.76105,3.77258
       L 31.7691,3.78264
       L 31.78407,3.79227
       L 31.79137,3.79956
       L 31.79085,3.80584
       L 31.78622,3.81162
       L 31.78656,3.81573
       L 31.78906,3.8201
       L 31.79277,3.82301
       L 31.79698,3.82413
       L 31.79802,3.82412
       L 31.81384,3.82398
       L 31.82228,3.82162
       L 31.82626,3.81898
       L 31.83372,3.80042
       L 31.83572,3.79853
       L 31.85736,3.77808
       L 31.87167,3.76016
       L 31.87711,3.75681
       L 31.88243,3.75104
       L 31.91908,3.7045
       L 31.92467,3.6974
       L 31.92918,3.68872
       L 31.9352,3.67147
       L 31.94589,3.59856
       L 31.95067,3.5865
       L 31.95236,3.58458
       L 31.95514,3.58435
       L 31.96704,3.58563
       L 31.99425,3.58422
       L 32.00363,3.58112
       L 32.01178,3.58415
       L 32.0177,3.58452
       L 32.02884,3.58802
       L 32.04398,3.5847
       L 32.06677,3.56902
       L 32.07278,3.56263
       L 32.07513,3.5576
       L 32.0748,3.55057
       L 32.07922,3.54071
       L 32.08078,3.53009
       L 32.08218,3.52962
       L 32.09763,3.5245
       L 32.10837,3.52471
       L 32.12057,3.52238
       L 32.12299,3.52001
       L 32.12878,3.51869
       L 32.14801,3.5182
       L 32.18246,3.5127
       L 32.18417,3.51243
       L 32.19333,3.51097
       L 32.1954,3.51427
       L 32.19519,3.52384
       L 32.19904,3.52524
       L 32.20471,3.55446
       L 32.19995,3.57626
       L 32.20078,3.58592
       L 32.1991,3.59418
       L 32.19556,3.60541
       L 32.19156,3.60912
       L 32.18683,3.61261
       L 32.18613,3.61529
       L 32.19342,3.62078
       L 32.28674,3.67541
       L 32.39542,3.73899
       L 32.40256,3.74317
       L 32.46109,3.74646
       L 32.47076,3.74814
       L 32.49982,3.74769
       L 32.51984,3.74901
       L 32.59021,3.75365
       L 32.61758,3.75453
       L 32.62698,3.75338
       L 32.64536,3.75501
       L 32.66092,3.75638
       L 32.68353,3.75686
       L 32.69669,3.75715
       L 32.7059,3.75868
       L 32.72153,3.76414
       L 32.75186,3.7704
       L 32.75766,3.77343
       L 32.76822,3.77646
       L 32.77298,3.77784
       L 32.87741,3.8046
       L 32.8895,3.80959
       L 32.90088,3.81427
       L 32.99799,3.87316
       L 33.01166,3.88143
       L 33.01447,3.88204
       L 33.01837,3.88041
       L 33.03183,3.8685
       L 33.1004,3.81831
       L 33.15009,3.78195
       L 33.17072,3.76842
       L 33.17413,3.76822
       L 33.19901,3.76673
       L 33.21039,3.76736
       L 33.22495,3.76459
       L 33.28497,3.75988
       L 33.30405,3.75696
       L 33.33295,3.75826
       L 33.33542,3.75775
       L 33.34814,3.75518
       L 33.36096,3.75433
       L 33.36618,3.7524
       L 33.38165,3.75306
       L 33.46033,3.74643
       L 33.50262,3.74286
       L 33.51276,3.75136
       L 33.52103,3.75831
       L 33.52814,3.76775
       L 33.56171,3.80148
       L 33.56665,3.80646
       L 33.57437,3.81111
       L 33.5849,3.82475
       L 33.60046,3.83676
       L 33.60815,3.84829
       L 33.62952,3.8675
       L 33.64359,3.88323
       L 33.6485,3.88801
       L 33.65027,3.88974
       L 33.70026,3.93842
       L 33.70572,3.94636
       L 33.71402,3.95252
       L 33.729,3.96796
       L 33.74042,3.97718
       L 33.74237,3.97875
       L 33.74664,3.98579
       L 33.75348,3.99269
       L 33.83115,4.06405
       L 33.90347,4.13046
       L 33.91772,4.13963
       L 33.92416,4.14827
       L 33.92807,4.15355
       L 33.94455,4.16898
       L 33.97382,4.19283
       L 33.98715,4.20676
       L 33.99448,4.21442
       L 34.02097,4.19417
       L 34.04041,4.18362
       L 34.04446,4.18005
       L 34.06131,4.15102
       L 34.06171,4.14565
       L 34.05399,4.12032
       L 34.05341,4.11837
       L 34.05228,4.10916
       L 34.05542,4.1035
       L 34.07053,4.09209
       L 34.07339,4.08845
       L 34.08051,4.07635
       L 34.08701,4.06529
       L 34.0907,4.0554
       L 34.09149,4.04888
       L 34.09048,4.04392
       L 34.08633,4.03686
       L 34.06195,4.02685
       L 34.06113,4.02576
       L 34.05704,4.02031
       L 34.05865,4.00832
       L 34.0787,3.99641
       L 34.09515,3.97743
       L 34.12927,3.95358
       L 34.12958,3.9421
       L 34.12839,3.93644
       L 34.12296,3.91078
       L 34.11856,3.89929
       L 34.11185,3.89483
       L 34.0929,3.88614
       L 34.0903,3.88196
       L 34.09113,3.87309
       L 34.12411,3.87401
       L 34.13599,3.87251
       L 34.15793,3.86972
       L 34.16336,3.8713
       L 34.1792,3.87997
       L 34.18594,3.88157
       L 34.20102,3.88137
       L 34.21143,3.87985
       L 34.21533,3.87543
       L 34.21899,3.86788
       L 34.22348,3.85146
       L 34.22327,3.84077
       L 34.22058,3.83559
       L 34.21991,3.83424
       L 34.20901,3.82898
       L 34.17914,3.82755
       L 34.17239,3.82492
       L 34.16486,3.81863
       L 34.15582,3.80529
       L 34.15558,3.8019
       L 34.15897,3.80035
       L 34.18497,3.7981
       L 34.18835,3.79499
       L 34.18887,3.7903
       L 34.18631,3.78559
       L 34.18494,3.78482
       L 34.16943,3.77613
       L 34.16946,3.77196
       L 34.17209,3.76728
       L 34.17468,3.7652
       L 34.18765,3.77151
       L 34.19623,3.77311
       L 34.21698,3.78076
       L 34.22141,3.78104
       L 34.22504,3.77636
       L 34.22842,3.77611
       L 34.24426,3.78269
       L 34.25204,3.78142
       L 34.25571,3.77056
       L 34.25729,3.76579
       L 34.26648,3.74731
       L 34.29932,3.71666
       L 34.30304,3.69086
       L 34.30719,3.69322
       L 34.31531,3.71678
       L 34.31644,3.72012
       L 34.32187,3.72745
       L 34.32654,3.73164
       L 34.33224,3.73427
       L 34.33978,3.73456
       L 34.3512,3.73747
       L 34.3746,3.7326
       L 34.38162,3.72742
       L 34.38712,3.72091
       L 34.39783,3.69879
       L 34.4046,3.69308
       L 34.40723,3.68891
       L 34.40936,3.68892
       L 34.41321,3.68893
       L 34.44623,3.67836
       L 34.45612,3.67423
       L 34.46002,3.66799
       L 34.45984,3.64973
       L 34.45505,3.60668
       L 34.45468,3.59857
       L 34.45239,3.5459
       L 34.44809,3.51746
       L 34.44403,3.5104
       L 34.44086,3.50491
       L 34.42868,3.49521
       L 34.41577,3.48789
       L 34.40585,3.48808
       L 34.39624,3.4844
       L 34.39548,3.48205
       L 34.41403,3.44821
       L 34.41589,3.43961
       L 34.41589,3.43388
       L 34.40195,3.41114
       L 34.39966,3.40252
       L 34.40079,3.38764
       L 34.40128,3.3814
       L 34.41306,3.35406
       L 34.42664,3.32986
       L 34.43951,3.29183
       L 34.44437,3.2699
       L 34.45032,3.2431
       L 34.4523,3.19252
       L 34.46225,3.17065
       L 34.46667,3.16545
       L 34.48187,3.15687
       L 34.4841,3.1556
       L 34.4888,3.15145
       L 34.49323,3.1426
       L 34.49713,3.14366
       L 34.50153,3.14706
       L 34.51218,3.14658
       L 34.54572,3.1347
       L 34.54935,3.13133
       L 34.55463,3.10657
       L 34.55533,3.10505
       L 34.55646,3.10267
       L 34.55878,3.1032
       L 34.56113,3.10034
       L 34.5621,3.09842
       L 34.56601,3.09059
       L 34.56662,3.0894
       L 34.57217,3.06021
       L 34.57275,3.04327
       L 34.57513,3.02763
       L 34.58435,2.98281
       L 34.58447,2.98238
       L 34.58899,2.9666
       L 34.58936,2.96535
       L 34.59702,2.91844
       L 34.60587,2.913
       L 34.62561,2.90524
       L 34.63394,2.90058
       L 34.63705,2.89746
       L 34.64206,2.88079
       L 34.64908,2.87038
       L 34.65057,2.86919
       L 34.65717,2.86389
       L 34.68155,2.86424
       L 34.69891,2.87368
       L 34.70306,2.87448
       L 34.70697,2.87319
       L 34.71921,2.85654
       L 34.73584,2.85034
       L 34.74261,2.84489
       L 34.74677,2.83864
       L 34.75031,2.82877
       L 34.75201,2.82406
       L 34.77176,2.81213
       L 34.77679,2.77564
       L 34.77795,2.71421
       L 34.77835,2.69168
       L 34.79581,2.66565
       L 34.83612,2.60551
       L 34.84534,2.59178
       L 34.86176,2.57097
       L 34.86459,2.56863
       L 34.87576,2.56893
       L 34.87988,2.57468
       L 34.88013,2.5812
       L 34.88245,2.58746
       L 34.88895,2.58879
       L 34.89154,2.58775
       L 34.89413,2.58359
       L 34.89746,2.55002
       L 34.89868,2.53771
       L 34.90182,2.52834
       L 34.90442,2.52417
       L 34.91016,2.51976
       L 34.92856,2.51825
       L 34.93307,2.48776
       L 34.93445,2.48446
       L 34.93881,2.47396
       L 34.95441,2.45811
       L 34.95343,2.45286
       L 34.91953,2.41785
       L 34.91617,2.40949
       L 34.91541,2.40115
       L 34.91727,2.38629
       L 34.9249,2.34178
       L 34.94626,2.21719
       L 34.9502,2.19418
       L 34.96762,2.09262
       L 34.97159,2.06946
       L 34.97812,2.05019
       L 34.97815,2.03846
       L 34.98425,2.00221
       L 34.98553,1.99469
       L 34.98709,1.99
       L 34.99725,1.97439
       L 34.99921,1.97236
       L 35,1.97154
       L 35.00272,1.96868
       L 35.0047,1.96585
       L 35.03394,1.9242
       L 35.03604,1.91951
       L 35.03354,1.89929
       z " />
 </g>
</svg>